<svg width="28" height="28" viewBox="0 0 28 28" fill="none" xmlns="http://www.w3.org/2000/svg">
<circle cx="14" cy="14" r="14" fill="#EEEEEE"/>
<path d="M20.7824 11.6212V17.8212C20.7824 18.0808 20.784 18.3404 20.7824 18.6C20.7824 18.6682 20.7775 18.7363 20.7694 18.8045C20.7759 18.7607 20.7808 18.7185 20.7873 18.6747C20.7678 18.8126 20.7321 18.9456 20.6802 19.0738L20.7289 18.957C20.6899 19.0479 20.6429 19.1371 20.5877 19.2199C20.5763 19.2377 20.5634 19.2539 20.552 19.2718C20.5066 19.3383 20.6396 19.1663 20.5634 19.2572C20.5341 19.2929 20.5033 19.3253 20.4709 19.3578C20.4384 19.3902 20.4043 19.4211 20.3703 19.4503C20.2794 19.5265 20.4514 19.3935 20.3849 19.4389C20.367 19.4503 20.3508 19.4632 20.3329 19.4746C20.2502 19.5298 20.1626 19.5768 20.0701 19.6158L20.1869 19.5671C20.0587 19.619 19.9257 19.6547 19.7878 19.6742C19.8316 19.6677 19.8738 19.6628 19.9176 19.6563C19.7634 19.6758 19.606 19.6693 19.4503 19.6693H8.29653C8.22675 19.6693 8.15698 19.6644 8.08559 19.6563C8.1294 19.6628 8.17159 19.6677 8.2154 19.6742C8.07748 19.6547 7.94442 19.619 7.81624 19.5671L7.93307 19.6158C7.8422 19.5768 7.75296 19.5298 7.6702 19.4746C7.65236 19.4632 7.63613 19.4503 7.61828 19.4389C7.55175 19.3935 7.72375 19.5265 7.63288 19.4503C7.59719 19.4211 7.56474 19.3902 7.53228 19.3578C7.49983 19.3253 7.469 19.2913 7.4398 19.2572C7.36353 19.1663 7.49659 19.3383 7.45115 19.2718C7.4398 19.2539 7.42681 19.2377 7.41546 19.2199C7.36029 19.1371 7.31323 19.0495 7.27429 18.957L7.32297 19.0738C7.27105 18.9456 7.23535 18.8126 7.21588 18.6747C7.22237 18.7185 7.22724 18.7607 7.23373 18.8045C7.19641 18.527 7.2175 18.2382 7.2175 17.9591V12.4228C7.2175 12.1551 7.21588 11.889 7.2175 11.6212C7.2175 11.5531 7.22237 11.4849 7.23048 11.4168C7.22399 11.4606 7.21912 11.5028 7.21263 11.5466C7.2321 11.4087 7.2678 11.2756 7.31972 11.1474L7.27105 11.2643C7.30999 11.1734 7.35704 11.0842 7.41221 11.0014C7.42357 10.9836 7.43655 10.9673 7.44791 10.9495C7.49334 10.883 7.36029 11.055 7.43655 10.9641C7.46576 10.9284 7.49659 10.8959 7.52904 10.8635C7.56149 10.831 7.59556 10.8002 7.62964 10.771C7.7205 10.6947 7.54851 10.8278 7.61504 10.7824C7.63288 10.771 7.64911 10.758 7.66696 10.7467C7.74971 10.6915 7.83733 10.6444 7.92982 10.6055L7.81299 10.6542C7.94118 10.6022 8.07423 10.5666 8.21215 10.5471C8.16834 10.5536 8.12615 10.5584 8.08234 10.5649C8.34034 10.5341 8.60969 10.5519 8.86768 10.5519H10.2518C10.4708 10.5519 10.6574 10.3994 10.7207 10.195C10.8748 9.69846 11.029 9.20195 11.1831 8.70706C11.2091 8.6243 11.2318 8.53831 11.2643 8.45718L11.2156 8.574C11.2334 8.53182 11.2545 8.49125 11.2789 8.45231C11.287 8.43933 11.2951 8.42797 11.3048 8.41499L11.2561 8.47827C11.2594 8.46042 11.2967 8.43284 11.3081 8.41986C11.3243 8.40363 11.3405 8.38903 11.3567 8.37442C11.3941 8.34035 11.2464 8.45231 11.3292 8.39714C11.3697 8.36956 11.4119 8.34846 11.4557 8.32737L11.3389 8.37605C11.4022 8.35008 11.4655 8.33224 11.5336 8.32088C11.4898 8.32737 11.4476 8.33224 11.4038 8.33873C11.5936 8.31276 11.7948 8.33061 11.9863 8.33061H15.8951C16.1239 8.33061 16.3641 8.30952 16.5912 8.33873C16.5474 8.33224 16.5052 8.32737 16.4614 8.32088C16.528 8.33224 16.5929 8.35008 16.6561 8.37605L16.5393 8.32737C16.5799 8.34522 16.6188 8.36631 16.6561 8.39065C16.7389 8.4442 16.6464 8.36631 16.6286 8.36793C16.6415 8.36793 16.6756 8.41012 16.6853 8.41986C16.7016 8.43608 16.7162 8.45231 16.7308 8.47016C16.7649 8.50748 16.6529 8.35982 16.7081 8.4442C16.7357 8.48638 16.7567 8.52857 16.7762 8.574L16.7275 8.45718C16.8054 8.65351 16.8557 8.8612 16.919 9.0624C17.0131 9.36745 17.1088 9.67412 17.203 9.97917C17.2257 10.0506 17.2484 10.1236 17.2695 10.195C17.3328 10.401 17.5194 10.5519 17.7384 10.5519H19.5379C19.6612 10.5519 19.7845 10.5503 19.9094 10.5649C19.8656 10.5584 19.8235 10.5536 19.7796 10.5471C19.9176 10.5666 20.0506 10.6022 20.1788 10.6542L20.062 10.6055C20.1528 10.6444 20.2421 10.6915 20.3248 10.7467C20.3427 10.758 20.3589 10.771 20.3768 10.7824C20.4433 10.8278 20.2713 10.6947 20.3622 10.771C20.3978 10.8002 20.4303 10.831 20.4628 10.8635C20.4952 10.8959 20.526 10.93 20.5552 10.9641C20.6315 11.055 20.4984 10.883 20.5439 10.9495C20.5552 10.9673 20.5682 10.9836 20.5796 11.0014C20.6347 11.0842 20.6818 11.1718 20.7207 11.2643L20.6721 11.1474C20.724 11.2756 20.7597 11.4087 20.7792 11.5466C20.7727 11.5028 20.7678 11.4606 20.7613 11.4168C20.7775 11.4849 20.7824 11.5531 20.7824 11.6212C20.784 11.876 21.0047 12.1194 21.2692 12.108C21.532 12.0967 21.7576 11.8938 21.756 11.6212C21.7527 11.0858 21.5418 10.5666 21.1653 10.1852C20.7905 9.80555 20.2697 9.58813 19.7375 9.58001C19.2701 9.57352 18.8028 9.58001 18.3372 9.58001H17.7465C17.9023 9.69846 18.0597 9.81853 18.2155 9.93698C18.1213 9.63194 18.0256 9.32689 17.9315 9.02346L17.7514 8.4442C17.6995 8.27869 17.654 8.10832 17.5599 7.96066C17.3247 7.58746 16.919 7.36192 16.4793 7.35706H11.5644C11.3389 7.35706 11.128 7.40573 10.9268 7.50633C10.6136 7.66373 10.401 7.96228 10.2988 8.29005C10.255 8.43121 10.2112 8.57076 10.1674 8.71192C10.0489 9.09486 9.92886 9.47779 9.81041 9.86072C9.8023 9.88668 9.79418 9.91264 9.78607 9.93698C9.94184 9.81853 10.0992 9.69846 10.255 9.58001H8.54965C8.21215 9.58001 7.87465 9.5865 7.55662 9.71793C7.26131 9.83801 6.99034 10.0068 6.77778 10.2485C6.56522 10.4887 6.40458 10.7678 6.31858 11.0777C6.21311 11.4541 6.24394 11.8727 6.24394 12.2638V18.5578C6.24394 18.9343 6.32994 19.3042 6.52141 19.632C6.68367 19.9095 6.91083 20.1399 7.17856 20.3184C7.45115 20.5001 7.76269 20.5942 8.08559 20.6331C8.19106 20.6461 8.29328 20.6461 8.39875 20.6461H19.0949C19.301 20.6461 19.507 20.6477 19.7147 20.6461C20.268 20.6429 20.8181 20.4157 21.1978 20.0101C21.558 19.6255 21.7576 19.1209 21.7592 18.5952C21.7608 18.2609 21.7592 17.9266 21.7592 17.5924V11.6229C21.7592 11.3681 21.5353 11.1247 21.2724 11.1361C21.0047 11.1458 20.7824 11.347 20.7824 11.6212Z" fill="#8E8E8E"/>
<path d="M16.8345 15.1115C16.8345 15.2624 16.8248 15.4133 16.8037 15.5626C16.8102 15.5187 16.8151 15.4766 16.8215 15.4327C16.781 15.7232 16.7047 16.0055 16.5911 16.2749L16.6398 16.158C16.5554 16.356 16.4532 16.5442 16.3331 16.7227C16.3056 16.7633 16.2764 16.8038 16.2471 16.8444C16.1758 16.9401 16.3088 16.7681 16.2585 16.8298C16.2455 16.846 16.2325 16.8623 16.2179 16.8801C16.1498 16.9629 16.0784 17.0407 16.0038 17.1154C15.9291 17.19 15.8496 17.2614 15.7685 17.3296C15.7523 17.3425 15.736 17.3555 15.7182 17.3701C15.6549 17.4204 15.8285 17.2874 15.7328 17.3588C15.6922 17.388 15.6517 17.4172 15.6111 17.4448C15.4326 17.5648 15.2444 17.6671 15.0464 17.7514L15.1633 17.7028C14.8939 17.8163 14.6116 17.8926 14.3211 17.9332C14.3649 17.9267 14.4071 17.9218 14.4509 17.9153C14.1508 17.9543 13.8489 17.9543 13.5488 17.9153C13.5926 17.9218 13.6348 17.9267 13.6786 17.9332C13.3881 17.8926 13.1058 17.8163 12.8364 17.7028L12.9533 17.7514C12.7553 17.6671 12.5671 17.5648 12.3886 17.4448C12.348 17.4172 12.3075 17.388 12.2669 17.3588C12.1712 17.2874 12.3432 17.4204 12.2815 17.3701C12.2653 17.3571 12.2491 17.3442 12.2312 17.3296C12.1485 17.2614 12.0706 17.19 11.9959 17.1154C11.9213 17.0407 11.8499 16.9612 11.7818 16.8801C11.7688 16.8639 11.7558 16.8476 11.7412 16.8298C11.6909 16.7665 11.8239 16.9401 11.7526 16.8444C11.7233 16.8038 11.6941 16.7633 11.6666 16.7227C11.5465 16.5442 11.4443 16.356 11.3599 16.158L11.4086 16.2749C11.295 16.0055 11.2187 15.7232 11.1782 15.4327C11.1846 15.4766 11.1895 15.5187 11.196 15.5626C11.1571 15.2624 11.1571 14.9606 11.196 14.6604C11.1895 14.7042 11.1846 14.7464 11.1782 14.7902C11.2187 14.4998 11.295 14.2174 11.4086 13.9481L11.3599 14.0649C11.4443 13.8669 11.5465 13.6787 11.6666 13.5002C11.6941 13.4597 11.7233 13.4191 11.7526 13.3785C11.8239 13.2828 11.6909 13.4548 11.7412 13.3931C11.7542 13.3769 11.7672 13.3607 11.7818 13.3428C11.8499 13.2601 11.9213 13.1822 11.9959 13.1076C12.0706 13.0329 12.1501 12.9615 12.2312 12.8934C12.2474 12.8804 12.2637 12.8674 12.2815 12.8528C12.3448 12.8025 12.1712 12.9356 12.2669 12.8642C12.3075 12.835 12.348 12.8058 12.3886 12.7782C12.5671 12.6581 12.7553 12.5559 12.9533 12.4715L12.8364 12.5202C13.1058 12.4066 13.3881 12.3303 13.6786 12.2898C13.6348 12.2963 13.5926 12.3011 13.5488 12.3076C13.8489 12.2687 14.1508 12.2687 14.4509 12.3076C14.4071 12.3011 14.3649 12.2963 14.3211 12.2898C14.6116 12.3303 14.8939 12.4066 15.1633 12.5202L15.0464 12.4715C15.2444 12.5559 15.4326 12.6581 15.6111 12.7782C15.6517 12.8058 15.6922 12.835 15.7328 12.8642C15.8285 12.9356 15.6565 12.8025 15.7182 12.8528C15.7344 12.8658 15.7506 12.8788 15.7685 12.8934C15.8512 12.9615 15.9291 13.0329 16.0038 13.1076C16.0784 13.1822 16.1498 13.2617 16.2179 13.3428C16.2309 13.3591 16.2439 13.3753 16.2585 13.3931C16.3088 13.4564 16.1758 13.2828 16.2471 13.3785C16.2764 13.4191 16.3056 13.4597 16.3331 13.5002C16.4532 13.6787 16.5554 13.8669 16.6398 14.0649L16.5911 13.9481C16.7047 14.2174 16.781 14.4998 16.8215 14.7902C16.8151 14.7464 16.8102 14.7042 16.8037 14.6604C16.8248 14.8097 16.8345 14.9606 16.8345 15.1115C16.8361 15.3662 17.0584 15.6096 17.3213 15.5982C17.5842 15.5869 17.8097 15.3841 17.8081 15.1115C17.8048 14.3424 17.5728 13.5651 17.125 12.9388C16.6609 12.2882 16.0297 11.803 15.2801 11.5255C13.8214 10.9868 12.0803 11.4558 11.0905 12.6549C10.5729 13.2812 10.2663 14.0292 10.1997 14.8405C10.1364 15.6112 10.3312 16.4112 10.7303 17.0716C11.1165 17.7109 11.6974 18.2496 12.3789 18.5595C13.135 18.9035 13.9577 19.0025 14.7738 18.8418C16.2715 18.5465 17.5128 17.2711 17.748 15.7605C17.7821 15.5463 17.8048 15.3305 17.8048 15.1147C17.8065 14.86 17.5809 14.6166 17.3181 14.6279C17.0568 14.636 16.8361 14.8389 16.8345 15.1115ZM12.5833 10.1058H15.4164C15.6711 10.1058 15.9145 9.88184 15.9032 9.61898C15.8918 9.3545 15.689 9.1322 15.4164 9.1322H12.5833C12.3286 9.1322 12.0852 9.35612 12.0965 9.61898C12.1079 9.88346 12.3107 10.1058 12.5833 10.1058Z" fill="#8E8E8E"/>
</svg>
