<svg width="24" height="24" viewBox="0 0 24 24" fill="none" xmlns="http://www.w3.org/2000/svg">
<path d="M18.975 19.95H5.025C3.9 19.95 3 19.05 3 17.925V17.325C3 16.2 3.9 15.3 5.025 15.3C5.325 15.3 5.55 15.075 5.55 14.775V10.95C5.55 7.425 8.4 4.5 12 4.5C15.6 4.5 18.45 7.425 18.45 10.95V14.775C18.45 15.075 18.675 15.3 18.975 15.3C20.1 15.3 21 16.2 21 17.325V17.925C21 19.05 20.1 19.95 18.975 19.95ZM12 6C9.3 6 7.05 8.25 7.05 10.95V14.775C7.05 15.9 6.15 16.8 5.025 16.8C4.725 16.8 4.5 17.025 4.5 17.325V17.925C4.5 18.225 4.725 18.45 5.025 18.45H18.975C19.275 18.45 19.5 18.225 19.5 17.925V17.325C19.5 17.025 19.275 16.8 18.975 16.8C17.85 16.8 16.95 15.9 16.95 14.775V10.95C16.95 8.25 14.7 6 12 6Z" fill="#B1B1B1"/>
<path d="M12.0002 22.5C10.2002 22.5 8.7002 21 8.7002 19.2C8.7002 18.75 9.0002 18.45 9.4502 18.45C9.9002 18.45 10.2002 18.75 10.2002 19.2C10.2002 20.175 11.0252 21 12.0002 21C12.9752 21 13.8002 20.175 13.8002 19.2C13.8002 18.75 14.1002 18.45 14.5502 18.45C15.0002 18.45 15.3002 18.75 15.3002 19.2C15.3002 21 13.8002 22.5 12.0002 22.5ZM12.0002 6C10.7252 6 9.7502 5.025 9.7502 3.75C9.7502 2.475 10.7252 1.5 12.0002 1.5C13.2752 1.5 14.2502 2.475 14.2502 3.75C14.2502 5.025 13.2752 6 12.0002 6ZM12.0002 3C11.5502 3 11.2502 3.3 11.2502 3.75C11.2502 4.2 11.5502 4.5 12.0002 4.5C12.4502 4.5 12.7502 4.2 12.7502 3.75C12.7502 3.3 12.4502 3 12.0002 3Z" fill="#B1B1B1"/>
</svg>
