<svg width="26" height="27" viewBox="0 0 26 27" fill="none" xmlns="http://www.w3.org/2000/svg">
<mask id="path-1-outside-1_134_88" maskUnits="userSpaceOnUse" x="0" y="4.35748" width="26" height="20" fill="black">
<rect fill="white" y="4.35748" width="26" height="20"/>
<path d="M10.6169 14.1666C10.3539 14.1666 10.0969 14.0886 9.87821 13.9425C9.65957 13.7964 9.48915 13.5888 9.38852 13.3459C9.28789 13.1029 9.26156 12.8356 9.31286 12.5777C9.36417 12.3198 9.49079 12.0829 9.67673 11.8969C9.86267 11.711 10.0996 11.5844 10.3575 11.5331C10.6154 11.4818 10.8827 11.5081 11.1257 11.6087C11.3686 11.7093 11.5762 11.8798 11.7223 12.0984C11.8684 12.317 11.9464 12.5741 11.9464 12.8371C11.946 13.1896 11.8058 13.5275 11.5566 13.7768C11.3073 14.026 10.9694 14.1662 10.6169 14.1666ZM10.6169 12.3939C10.5292 12.3939 10.4435 12.4199 10.3706 12.4686C10.2978 12.5173 10.241 12.5865 10.2074 12.6675C10.1739 12.7484 10.1651 12.8375 10.1822 12.9235C10.1993 13.0095 10.2415 13.0885 10.3035 13.1504C10.3655 13.2124 10.4444 13.2546 10.5304 13.2717C10.6164 13.2888 10.7055 13.28 10.7865 13.2465C10.8674 13.213 10.9367 13.1562 10.9854 13.0833C11.0341 13.0104 11.06 12.9247 11.06 12.8371C11.0599 12.7196 11.0132 12.6069 10.9301 12.5238C10.847 12.4407 10.7344 12.394 10.6169 12.3939ZM16.1411 14.1666C15.8781 14.1666 15.621 14.0886 15.4024 13.9425C15.1838 13.7964 15.0133 13.5888 14.9127 13.3459C14.8121 13.1029 14.7858 12.8356 14.8371 12.5777C14.8884 12.3198 15.015 12.0829 15.2009 11.8969C15.3869 11.711 15.6238 11.5844 15.8817 11.5331C16.1396 11.4818 16.4069 11.5081 16.6498 11.6087C16.8928 11.7093 17.1004 11.8798 17.2465 12.0984C17.3926 12.317 17.4706 12.5741 17.4706 12.8371C17.4702 13.1896 17.33 13.5275 17.0808 13.7768C16.8315 14.026 16.4936 14.1662 16.1411 14.1666ZM16.1411 12.3939C16.0534 12.3939 15.9677 12.4199 15.8948 12.4686C15.822 12.5173 15.7652 12.5865 15.7316 12.6675C15.6981 12.7484 15.6893 12.8375 15.7064 12.9235C15.7235 13.0095 15.7657 13.0885 15.8277 13.1504C15.8897 13.2124 15.9686 13.2546 16.0546 13.2717C16.1406 13.2888 16.2297 13.28 16.3107 13.2465C16.3916 13.213 16.4608 13.1562 16.5095 13.0833C16.5582 13.0104 16.5842 12.9247 16.5842 12.8371C16.5841 12.7196 16.5374 12.6069 16.4543 12.5238C16.3712 12.4407 16.2586 12.394 16.1411 12.3939Z"/>
<path d="M25.163 16.5888C25.741 15.7567 25.9032 14.5822 25.6227 13.1599C25.1419 10.7198 23.46 8.09558 21.8734 7.31049C20.6176 6.68881 18.9495 6.68705 17.9356 6.75917C17.8276 6.64483 17.7152 6.53263 17.5948 6.42151C16.5076 5.41786 14.8396 5.38626 13.7356 5.36527L13.3647 5.35748L13.0353 5.36527C11.9291 5.38734 10.2568 5.42088 9.16526 6.42843C9.04707 6.53745 8.93677 6.64754 8.8306 6.75963C7.81778 6.68622 6.14403 6.68713 4.88451 7.31047C3.29788 8.09556 1.61604 10.7198 1.13519 13.1599C0.824872 14.7333 1.05122 16.0079 1.78914 16.8458C2.31976 17.4487 3.31086 17.7525 4.74081 17.7525C4.86064 17.7525 4.99473 17.7428 5.12094 17.7385C5.18918 19.0953 5.7753 20.3742 6.7585 21.3116C8.25379 22.7452 10.7796 23.0274 12.535 23.0274C12.8107 23.0274 13.0673 23.0205 13.2985 23.0099L13.3803 23.0064L13.4634 23.0099C15.0886 23.1277 16.7208 22.9106 18.2587 22.3719V22.8926C18.2589 23.0537 18.323 23.2081 18.4369 23.3219C18.5509 23.4358 18.7053 23.4999 18.8664 23.5H22.0734C22.2344 23.4999 22.3889 23.4358 22.5028 23.3219C22.6167 23.2081 22.6808 23.0537 22.681 22.8926V20.8362H24.7377C24.8987 20.836 25.0531 20.7719 25.1669 20.6581C25.2807 20.5442 25.3447 20.3898 25.3449 20.2288V17.0213C25.3449 16.9407 25.3288 16.861 25.2976 16.7867C25.2663 16.7124 25.2206 16.6451 25.163 16.5888ZM21.4804 8.10467C22.8277 8.7716 24.3265 11.165 24.7532 13.3313C24.9307 14.2328 24.9973 15.4726 24.304 16.2598C24.2505 16.3176 24.1907 16.3693 24.1258 16.4139H22.681V14.3575C22.6808 14.1964 22.6167 14.042 22.5028 13.9281C22.3889 13.8142 22.2344 13.7502 22.0734 13.75H21.1263C20.9161 13.0939 20.6435 12.3502 20.3054 11.435L20.2422 11.263C19.8314 9.99244 19.2845 8.77 18.611 7.61696C19.5918 7.56427 20.5721 7.73088 21.4804 8.10467ZM2.45392 16.2598C1.76058 15.4726 1.82723 14.2328 2.0047 13.3313C2.43143 11.165 3.9302 8.7716 5.27749 8.10487C6.1879 7.73023 7.17047 7.5636 8.15349 7.61716C7.47773 8.7719 6.92932 9.99658 6.51788 11.2697L6.45166 11.4491C5.60901 13.7321 5.18574 14.8779 5.11 16.3658C5.10178 16.5269 5.09671 16.691 5.0942 16.8565C3.78787 16.8993 2.83245 16.6893 2.45392 16.2598ZM13.3859 17.0807L13.379 17.0793L13.372 17.0807C13.1486 17.026 12.9487 16.901 12.8016 16.7242C12.6574 16.5522 12.5502 16.3523 12.487 16.1369C12.7582 15.9843 13.0687 15.916 13.379 15.9406C13.689 15.9177 13.9989 15.987 14.2697 16.1397C14.2069 16.354 14.1004 16.553 13.9567 16.724C13.8095 16.9009 13.6094 17.0259 13.3859 17.0807ZM13.8221 22.1312V17.8709C14.1353 17.7523 14.4132 17.5561 14.6297 17.3007C14.9399 16.9339 15.1377 16.4855 15.1997 16.0092C15.2069 15.9415 15.1983 15.8731 15.1748 15.8092C15.1512 15.7454 15.1132 15.6878 15.0638 15.6409C14.8368 15.4349 14.5706 15.2768 14.2811 15.176C13.9916 15.0752 13.6848 15.0338 13.379 15.0543C13.0729 15.0334 12.7658 15.0744 12.476 15.175C12.1862 15.2755 11.9197 15.4335 11.6924 15.6394C11.6431 15.686 11.6051 15.7433 11.5815 15.8068C11.5579 15.8704 11.5491 15.9385 11.556 16.006C11.6178 16.4837 11.8165 16.9334 12.1282 17.3007C12.3447 17.5561 12.6226 17.7523 12.9358 17.8709V22.1294C10.4343 22.1935 8.41635 21.6731 7.3722 20.6719C6.0366 19.3913 5.92104 17.8672 5.99548 16.4108C6.06386 15.0579 6.47155 13.9545 7.28305 11.7561L7.3497 11.5765C8.38148 8.78111 8.83331 7.94062 9.76599 7.07979C10.6108 6.30033 12.0226 6.27198 13.0531 6.25142L13.3647 6.24341L13.7191 6.25142C14.7466 6.27089 16.154 6.29773 16.9937 7.07286C17.9272 7.93434 18.3786 8.77483 19.4104 11.5698L19.474 11.7421C19.7612 12.52 20.0033 13.1758 20.1955 13.75H18.8664C18.7053 13.7502 18.5509 13.8142 18.4369 13.9281C18.323 14.042 18.2589 14.1964 18.2587 14.3575V16.4139H16.2021C16.0411 16.4141 15.8867 16.4781 15.7728 16.592C15.659 16.7059 15.595 16.8603 15.5949 17.0213V20.2288C15.595 20.3898 15.659 20.5442 15.7728 20.6581C15.8867 20.7719 16.0411 20.836 16.2021 20.8362H18.2587V21.4062C16.8517 21.9731 15.3364 22.2208 13.8221 22.1312ZM24.4585 19.9498H22.2378C22.1796 19.9498 22.122 19.9613 22.0682 19.9835C22.0144 20.0058 21.9656 20.0384 21.9244 20.0796C21.8833 20.1207 21.8506 20.1696 21.8284 20.2234C21.8061 20.2772 21.7946 20.3348 21.7947 20.393V22.6137H19.1451V20.393C19.1451 20.3348 19.1336 20.2772 19.1114 20.2234C19.0891 20.1696 19.0565 20.1207 19.0153 20.0796C18.9742 20.0384 18.9253 20.0058 18.8715 19.9835C18.8177 19.9613 18.7601 19.9498 18.7019 19.9498H16.4812V17.3003H18.7019C18.7601 17.3003 18.8177 17.2888 18.8715 17.2666C18.9253 17.2443 18.9742 17.2116 19.0153 17.1705C19.0565 17.1293 19.0891 17.0805 19.1114 17.0267C19.1336 16.9729 19.1451 16.9153 19.1451 16.8571V14.6364H21.7947V16.8571C21.7946 16.9153 21.8061 16.9729 21.8284 17.0267C21.8506 17.0805 21.8833 17.1293 21.9244 17.1705C21.9656 17.2116 22.0144 17.2443 22.0682 17.2666C22.122 17.2888 22.1796 17.3003 22.2378 17.3003H24.4585V19.9498Z"/>
</mask>
<path d="M10.6169 14.1666C10.3539 14.1666 10.0969 14.0886 9.87821 13.9425C9.65957 13.7964 9.48915 13.5888 9.38852 13.3459C9.28789 13.1029 9.26156 12.8356 9.31286 12.5777C9.36417 12.3198 9.49079 12.0829 9.67673 11.8969C9.86267 11.711 10.0996 11.5844 10.3575 11.5331C10.6154 11.4818 10.8827 11.5081 11.1257 11.6087C11.3686 11.7093 11.5762 11.8798 11.7223 12.0984C11.8684 12.317 11.9464 12.5741 11.9464 12.8371C11.946 13.1896 11.8058 13.5275 11.5566 13.7768C11.3073 14.026 10.9694 14.1662 10.6169 14.1666ZM10.6169 12.3939C10.5292 12.3939 10.4435 12.4199 10.3706 12.4686C10.2978 12.5173 10.241 12.5865 10.2074 12.6675C10.1739 12.7484 10.1651 12.8375 10.1822 12.9235C10.1993 13.0095 10.2415 13.0885 10.3035 13.1504C10.3655 13.2124 10.4444 13.2546 10.5304 13.2717C10.6164 13.2888 10.7055 13.28 10.7865 13.2465C10.8674 13.213 10.9367 13.1562 10.9854 13.0833C11.0341 13.0104 11.06 12.9247 11.06 12.8371C11.0599 12.7196 11.0132 12.6069 10.9301 12.5238C10.847 12.4407 10.7344 12.394 10.6169 12.3939ZM16.1411 14.1666C15.8781 14.1666 15.621 14.0886 15.4024 13.9425C15.1838 13.7964 15.0133 13.5888 14.9127 13.3459C14.8121 13.1029 14.7858 12.8356 14.8371 12.5777C14.8884 12.3198 15.015 12.0829 15.2009 11.8969C15.3869 11.711 15.6238 11.5844 15.8817 11.5331C16.1396 11.4818 16.4069 11.5081 16.6498 11.6087C16.8928 11.7093 17.1004 11.8798 17.2465 12.0984C17.3926 12.317 17.4706 12.5741 17.4706 12.8371C17.4702 13.1896 17.33 13.5275 17.0808 13.7768C16.8315 14.026 16.4936 14.1662 16.1411 14.1666ZM16.1411 12.3939C16.0534 12.3939 15.9677 12.4199 15.8948 12.4686C15.822 12.5173 15.7652 12.5865 15.7316 12.6675C15.6981 12.7484 15.6893 12.8375 15.7064 12.9235C15.7235 13.0095 15.7657 13.0885 15.8277 13.1504C15.8897 13.2124 15.9686 13.2546 16.0546 13.2717C16.1406 13.2888 16.2297 13.28 16.3107 13.2465C16.3916 13.213 16.4608 13.1562 16.5095 13.0833C16.5582 13.0104 16.5842 12.9247 16.5842 12.8371C16.5841 12.7196 16.5374 12.6069 16.4543 12.5238C16.3712 12.4407 16.2586 12.394 16.1411 12.3939Z" fill="#549CD1"/>
<path d="M25.163 16.5888C25.741 15.7567 25.9032 14.5822 25.6227 13.1599C25.1419 10.7198 23.46 8.09558 21.8734 7.31049C20.6176 6.68881 18.9495 6.68705 17.9356 6.75917C17.8276 6.64483 17.7152 6.53263 17.5948 6.42151C16.5076 5.41786 14.8396 5.38626 13.7356 5.36527L13.3647 5.35748L13.0353 5.36527C11.9291 5.38734 10.2568 5.42088 9.16526 6.42843C9.04707 6.53745 8.93677 6.64754 8.8306 6.75963C7.81778 6.68622 6.14403 6.68713 4.88451 7.31047C3.29788 8.09556 1.61604 10.7198 1.13519 13.1599C0.824872 14.7333 1.05122 16.0079 1.78914 16.8458C2.31976 17.4487 3.31086 17.7525 4.74081 17.7525C4.86064 17.7525 4.99473 17.7428 5.12094 17.7385C5.18918 19.0953 5.7753 20.3742 6.7585 21.3116C8.25379 22.7452 10.7796 23.0274 12.535 23.0274C12.8107 23.0274 13.0673 23.0205 13.2985 23.0099L13.3803 23.0064L13.4634 23.0099C15.0886 23.1277 16.7208 22.9106 18.2587 22.3719V22.8926C18.2589 23.0537 18.323 23.2081 18.4369 23.3219C18.5509 23.4358 18.7053 23.4999 18.8664 23.5H22.0734C22.2344 23.4999 22.3889 23.4358 22.5028 23.3219C22.6167 23.2081 22.6808 23.0537 22.681 22.8926V20.8362H24.7377C24.8987 20.836 25.0531 20.7719 25.1669 20.6581C25.2807 20.5442 25.3447 20.3898 25.3449 20.2288V17.0213C25.3449 16.9407 25.3288 16.861 25.2976 16.7867C25.2663 16.7124 25.2206 16.6451 25.163 16.5888ZM21.4804 8.10467C22.8277 8.7716 24.3265 11.165 24.7532 13.3313C24.9307 14.2328 24.9973 15.4726 24.304 16.2598C24.2505 16.3176 24.1907 16.3693 24.1258 16.4139H22.681V14.3575C22.6808 14.1964 22.6167 14.042 22.5028 13.9281C22.3889 13.8142 22.2344 13.7502 22.0734 13.75H21.1263C20.9161 13.0939 20.6435 12.3502 20.3054 11.435L20.2422 11.263C19.8314 9.99244 19.2845 8.77 18.611 7.61696C19.5918 7.56427 20.5721 7.73088 21.4804 8.10467ZM2.45392 16.2598C1.76058 15.4726 1.82723 14.2328 2.0047 13.3313C2.43143 11.165 3.9302 8.7716 5.27749 8.10487C6.1879 7.73023 7.17047 7.5636 8.15349 7.61716C7.47773 8.7719 6.92932 9.99658 6.51788 11.2697L6.45166 11.4491C5.60901 13.7321 5.18574 14.8779 5.11 16.3658C5.10178 16.5269 5.09671 16.691 5.0942 16.8565C3.78787 16.8993 2.83245 16.6893 2.45392 16.2598ZM13.3859 17.0807L13.379 17.0793L13.372 17.0807C13.1486 17.026 12.9487 16.901 12.8016 16.7242C12.6574 16.5522 12.5502 16.3523 12.487 16.1369C12.7582 15.9843 13.0687 15.916 13.379 15.9406C13.689 15.9177 13.9989 15.987 14.2697 16.1397C14.2069 16.354 14.1004 16.553 13.9567 16.724C13.8095 16.9009 13.6094 17.0259 13.3859 17.0807ZM13.8221 22.1312V17.8709C14.1353 17.7523 14.4132 17.5561 14.6297 17.3007C14.9399 16.9339 15.1377 16.4855 15.1997 16.0092C15.2069 15.9415 15.1983 15.8731 15.1748 15.8092C15.1512 15.7454 15.1132 15.6878 15.0638 15.6409C14.8368 15.4349 14.5706 15.2768 14.2811 15.176C13.9916 15.0752 13.6848 15.0338 13.379 15.0543C13.0729 15.0334 12.7658 15.0744 12.476 15.175C12.1862 15.2755 11.9197 15.4335 11.6924 15.6394C11.6431 15.686 11.6051 15.7433 11.5815 15.8068C11.5579 15.8704 11.5491 15.9385 11.556 16.006C11.6178 16.4837 11.8165 16.9334 12.1282 17.3007C12.3447 17.5561 12.6226 17.7523 12.9358 17.8709V22.1294C10.4343 22.1935 8.41635 21.6731 7.3722 20.6719C6.0366 19.3913 5.92104 17.8672 5.99548 16.4108C6.06386 15.0579 6.47155 13.9545 7.28305 11.7561L7.3497 11.5765C8.38148 8.78111 8.83331 7.94062 9.76599 7.07979C10.6108 6.30033 12.0226 6.27198 13.0531 6.25142L13.3647 6.24341L13.7191 6.25142C14.7466 6.27089 16.154 6.29773 16.9937 7.07286C17.9272 7.93434 18.3786 8.77483 19.4104 11.5698L19.474 11.7421C19.7612 12.52 20.0033 13.1758 20.1955 13.75H18.8664C18.7053 13.7502 18.5509 13.8142 18.4369 13.9281C18.323 14.042 18.2589 14.1964 18.2587 14.3575V16.4139H16.2021C16.0411 16.4141 15.8867 16.4781 15.7728 16.592C15.659 16.7059 15.595 16.8603 15.5949 17.0213V20.2288C15.595 20.3898 15.659 20.5442 15.7728 20.6581C15.8867 20.7719 16.0411 20.836 16.2021 20.8362H18.2587V21.4062C16.8517 21.9731 15.3364 22.2208 13.8221 22.1312ZM24.4585 19.9498H22.2378C22.1796 19.9498 22.122 19.9613 22.0682 19.9835C22.0144 20.0058 21.9656 20.0384 21.9244 20.0796C21.8833 20.1207 21.8506 20.1696 21.8284 20.2234C21.8061 20.2772 21.7946 20.3348 21.7947 20.393V22.6137H19.1451V20.393C19.1451 20.3348 19.1336 20.2772 19.1114 20.2234C19.0891 20.1696 19.0565 20.1207 19.0153 20.0796C18.9742 20.0384 18.9253 20.0058 18.8715 19.9835C18.8177 19.9613 18.7601 19.9498 18.7019 19.9498H16.4812V17.3003H18.7019C18.7601 17.3003 18.8177 17.2888 18.8715 17.2666C18.9253 17.2443 18.9742 17.2116 19.0153 17.1705C19.0565 17.1293 19.0891 17.0805 19.1114 17.0267C19.1336 16.9729 19.1451 16.9153 19.1451 16.8571V14.6364H21.7947V16.8571C21.7946 16.9153 21.8061 16.9729 21.8284 17.0267C21.8506 17.0805 21.8833 17.1293 21.9244 17.1705C21.9656 17.2116 22.0144 17.2443 22.0682 17.2666C22.122 17.2888 22.1796 17.3003 22.2378 17.3003H24.4585V19.9498Z" fill="#549CD1"/>
<path d="M10.6169 14.1666C10.3539 14.1666 10.0969 14.0886 9.87821 13.9425C9.65957 13.7964 9.48915 13.5888 9.38852 13.3459C9.28789 13.1029 9.26156 12.8356 9.31286 12.5777C9.36417 12.3198 9.49079 12.0829 9.67673 11.8969C9.86267 11.711 10.0996 11.5844 10.3575 11.5331C10.6154 11.4818 10.8827 11.5081 11.1257 11.6087C11.3686 11.7093 11.5762 11.8798 11.7223 12.0984C11.8684 12.317 11.9464 12.5741 11.9464 12.8371C11.946 13.1896 11.8058 13.5275 11.5566 13.7768C11.3073 14.026 10.9694 14.1662 10.6169 14.1666ZM10.6169 12.3939C10.5292 12.3939 10.4435 12.4199 10.3706 12.4686C10.2978 12.5173 10.241 12.5865 10.2074 12.6675C10.1739 12.7484 10.1651 12.8375 10.1822 12.9235C10.1993 13.0095 10.2415 13.0885 10.3035 13.1504C10.3655 13.2124 10.4444 13.2546 10.5304 13.2717C10.6164 13.2888 10.7055 13.28 10.7865 13.2465C10.8674 13.213 10.9367 13.1562 10.9854 13.0833C11.0341 13.0104 11.06 12.9247 11.06 12.8371C11.0599 12.7196 11.0132 12.6069 10.9301 12.5238C10.847 12.4407 10.7344 12.394 10.6169 12.3939ZM16.1411 14.1666C15.8781 14.1666 15.621 14.0886 15.4024 13.9425C15.1838 13.7964 15.0133 13.5888 14.9127 13.3459C14.8121 13.1029 14.7858 12.8356 14.8371 12.5777C14.8884 12.3198 15.015 12.0829 15.2009 11.8969C15.3869 11.711 15.6238 11.5844 15.8817 11.5331C16.1396 11.4818 16.4069 11.5081 16.6498 11.6087C16.8928 11.7093 17.1004 11.8798 17.2465 12.0984C17.3926 12.317 17.4706 12.5741 17.4706 12.8371C17.4702 13.1896 17.33 13.5275 17.0808 13.7768C16.8315 14.026 16.4936 14.1662 16.1411 14.1666ZM16.1411 12.3939C16.0534 12.3939 15.9677 12.4199 15.8948 12.4686C15.822 12.5173 15.7652 12.5865 15.7316 12.6675C15.6981 12.7484 15.6893 12.8375 15.7064 12.9235C15.7235 13.0095 15.7657 13.0885 15.8277 13.1504C15.8897 13.2124 15.9686 13.2546 16.0546 13.2717C16.1406 13.2888 16.2297 13.28 16.3107 13.2465C16.3916 13.213 16.4608 13.1562 16.5095 13.0833C16.5582 13.0104 16.5842 12.9247 16.5842 12.8371C16.5841 12.7196 16.5374 12.6069 16.4543 12.5238C16.3712 12.4407 16.2586 12.394 16.1411 12.3939Z" stroke="#549CD1" stroke-width="0.34" mask="url(#path-1-outside-1_134_88)"/>
<path d="M25.163 16.5888C25.741 15.7567 25.9032 14.5822 25.6227 13.1599C25.1419 10.7198 23.46 8.09558 21.8734 7.31049C20.6176 6.68881 18.9495 6.68705 17.9356 6.75917C17.8276 6.64483 17.7152 6.53263 17.5948 6.42151C16.5076 5.41786 14.8396 5.38626 13.7356 5.36527L13.3647 5.35748L13.0353 5.36527C11.9291 5.38734 10.2568 5.42088 9.16526 6.42843C9.04707 6.53745 8.93677 6.64754 8.8306 6.75963C7.81778 6.68622 6.14403 6.68713 4.88451 7.31047C3.29788 8.09556 1.61604 10.7198 1.13519 13.1599C0.824872 14.7333 1.05122 16.0079 1.78914 16.8458C2.31976 17.4487 3.31086 17.7525 4.74081 17.7525C4.86064 17.7525 4.99473 17.7428 5.12094 17.7385C5.18918 19.0953 5.7753 20.3742 6.7585 21.3116C8.25379 22.7452 10.7796 23.0274 12.535 23.0274C12.8107 23.0274 13.0673 23.0205 13.2985 23.0099L13.3803 23.0064L13.4634 23.0099C15.0886 23.1277 16.7208 22.9106 18.2587 22.3719V22.8926C18.2589 23.0537 18.323 23.2081 18.4369 23.3219C18.5509 23.4358 18.7053 23.4999 18.8664 23.5H22.0734C22.2344 23.4999 22.3889 23.4358 22.5028 23.3219C22.6167 23.2081 22.6808 23.0537 22.681 22.8926V20.8362H24.7377C24.8987 20.836 25.0531 20.7719 25.1669 20.6581C25.2807 20.5442 25.3447 20.3898 25.3449 20.2288V17.0213C25.3449 16.9407 25.3288 16.861 25.2976 16.7867C25.2663 16.7124 25.2206 16.6451 25.163 16.5888ZM21.4804 8.10467C22.8277 8.7716 24.3265 11.165 24.7532 13.3313C24.9307 14.2328 24.9973 15.4726 24.304 16.2598C24.2505 16.3176 24.1907 16.3693 24.1258 16.4139H22.681V14.3575C22.6808 14.1964 22.6167 14.042 22.5028 13.9281C22.3889 13.8142 22.2344 13.7502 22.0734 13.75H21.1263C20.9161 13.0939 20.6435 12.3502 20.3054 11.435L20.2422 11.263C19.8314 9.99244 19.2845 8.77 18.611 7.61696C19.5918 7.56427 20.5721 7.73088 21.4804 8.10467ZM2.45392 16.2598C1.76058 15.4726 1.82723 14.2328 2.0047 13.3313C2.43143 11.165 3.9302 8.7716 5.27749 8.10487C6.1879 7.73023 7.17047 7.5636 8.15349 7.61716C7.47773 8.7719 6.92932 9.99658 6.51788 11.2697L6.45166 11.4491C5.60901 13.7321 5.18574 14.8779 5.11 16.3658C5.10178 16.5269 5.09671 16.691 5.0942 16.8565C3.78787 16.8993 2.83245 16.6893 2.45392 16.2598ZM13.3859 17.0807L13.379 17.0793L13.372 17.0807C13.1486 17.026 12.9487 16.901 12.8016 16.7242C12.6574 16.5522 12.5502 16.3523 12.487 16.1369C12.7582 15.9843 13.0687 15.916 13.379 15.9406C13.689 15.9177 13.9989 15.987 14.2697 16.1397C14.2069 16.354 14.1004 16.553 13.9567 16.724C13.8095 16.9009 13.6094 17.0259 13.3859 17.0807ZM13.8221 22.1312V17.8709C14.1353 17.7523 14.4132 17.5561 14.6297 17.3007C14.9399 16.9339 15.1377 16.4855 15.1997 16.0092C15.2069 15.9415 15.1983 15.8731 15.1748 15.8092C15.1512 15.7454 15.1132 15.6878 15.0638 15.6409C14.8368 15.4349 14.5706 15.2768 14.2811 15.176C13.9916 15.0752 13.6848 15.0338 13.379 15.0543C13.0729 15.0334 12.7658 15.0744 12.476 15.175C12.1862 15.2755 11.9197 15.4335 11.6924 15.6394C11.6431 15.686 11.6051 15.7433 11.5815 15.8068C11.5579 15.8704 11.5491 15.9385 11.556 16.006C11.6178 16.4837 11.8165 16.9334 12.1282 17.3007C12.3447 17.5561 12.6226 17.7523 12.9358 17.8709V22.1294C10.4343 22.1935 8.41635 21.6731 7.3722 20.6719C6.0366 19.3913 5.92104 17.8672 5.99548 16.4108C6.06386 15.0579 6.47155 13.9545 7.28305 11.7561L7.3497 11.5765C8.38148 8.78111 8.83331 7.94062 9.76599 7.07979C10.6108 6.30033 12.0226 6.27198 13.0531 6.25142L13.3647 6.24341L13.7191 6.25142C14.7466 6.27089 16.154 6.29773 16.9937 7.07286C17.9272 7.93434 18.3786 8.77483 19.4104 11.5698L19.474 11.7421C19.7612 12.52 20.0033 13.1758 20.1955 13.75H18.8664C18.7053 13.7502 18.5509 13.8142 18.4369 13.9281C18.323 14.042 18.2589 14.1964 18.2587 14.3575V16.4139H16.2021C16.0411 16.4141 15.8867 16.4781 15.7728 16.592C15.659 16.7059 15.595 16.8603 15.5949 17.0213V20.2288C15.595 20.3898 15.659 20.5442 15.7728 20.6581C15.8867 20.7719 16.0411 20.836 16.2021 20.8362H18.2587V21.4062C16.8517 21.9731 15.3364 22.2208 13.8221 22.1312ZM24.4585 19.9498H22.2378C22.1796 19.9498 22.122 19.9613 22.0682 19.9835C22.0144 20.0058 21.9656 20.0384 21.9244 20.0796C21.8833 20.1207 21.8506 20.1696 21.8284 20.2234C21.8061 20.2772 21.7946 20.3348 21.7947 20.393V22.6137H19.1451V20.393C19.1451 20.3348 19.1336 20.2772 19.1114 20.2234C19.0891 20.1696 19.0565 20.1207 19.0153 20.0796C18.9742 20.0384 18.9253 20.0058 18.8715 19.9835C18.8177 19.9613 18.7601 19.9498 18.7019 19.9498H16.4812V17.3003H18.7019C18.7601 17.3003 18.8177 17.2888 18.8715 17.2666C18.9253 17.2443 18.9742 17.2116 19.0153 17.1705C19.0565 17.1293 19.0891 17.0805 19.1114 17.0267C19.1336 16.9729 19.1451 16.9153 19.1451 16.8571V14.6364H21.7947V16.8571C21.7946 16.9153 21.8061 16.9729 21.8284 17.0267C21.8506 17.0805 21.8833 17.1293 21.9244 17.1705C21.9656 17.2116 22.0144 17.2443 22.0682 17.2666C22.122 17.2888 22.1796 17.3003 22.2378 17.3003H24.4585V19.9498Z" stroke="#549CD1" stroke-width="0.34" mask="url(#path-1-outside-1_134_88)"/>
</svg>
