<svg width="28" height="28" viewBox="0 0 28 28" fill="none" xmlns="http://www.w3.org/2000/svg">
<circle cx="14" cy="14" r="14" fill="#EEEEEE"/>
<path d="M18.6124 11.8586L18.3874 18.6688C18.3683 19.252 18.1226 19.8049 17.7025 20.2099C17.2824 20.615 16.721 20.8404 16.1374 20.8383H11.8624C11.2792 20.8404 10.7182 20.6153 10.2981 20.2107C9.87811 19.8061 9.63216 19.2539 9.61242 18.671L9.38742 11.8586C9.3825 11.7094 9.43704 11.5644 9.53905 11.4554C9.64106 11.3464 9.78218 11.2825 9.93136 11.2775C10.0805 11.2726 10.2256 11.3272 10.3345 11.4292C10.4435 11.5312 10.5075 11.6723 10.5124 11.8215L10.7374 18.6333C10.7486 18.9241 10.8721 19.1993 11.0819 19.401C11.2916 19.6027 11.5714 19.7152 11.8624 19.715H16.1374C16.4288 19.7152 16.7089 19.6024 16.9187 19.4002C17.1286 19.198 17.2518 18.9223 17.2624 18.6311L17.4874 11.8215C17.4923 11.6723 17.5563 11.5312 17.6653 11.4292C17.7743 11.3272 17.9193 11.2726 18.0685 11.2775C18.2177 11.2825 18.3588 11.3464 18.4608 11.4554C18.5628 11.5644 18.6173 11.7094 18.6124 11.8586ZM19.3566 9.59228C19.3566 9.74147 19.2973 9.88454 19.1919 9.99003C19.0864 10.0955 18.9433 10.1548 18.7941 10.1548H9.2063C9.05711 10.1548 8.91404 10.0955 8.80855 9.99003C8.70306 9.88454 8.6438 9.74147 8.6438 9.59228C8.6438 9.4431 8.70306 9.30002 8.80855 9.19454C8.91404 9.08905 9.05711 9.02978 9.2063 9.02978H10.95C11.1283 9.03026 11.3003 8.96442 11.4327 8.84506C11.565 8.7257 11.6482 8.56136 11.6661 8.38403C11.7076 7.96806 11.9025 7.58243 12.2128 7.30229C12.5231 7.02216 12.9266 6.86757 13.3446 6.86866H14.6552C15.0733 6.86757 15.4768 7.02216 15.787 7.30229C16.0973 7.58243 16.2922 7.96806 16.3337 8.38403C16.3516 8.56136 16.4348 8.7257 16.5672 8.84506C16.6995 8.96442 16.8716 9.03026 17.0498 9.02978H18.7935C18.9427 9.02978 19.0858 9.08905 19.1913 9.19454C19.2968 9.30002 19.356 9.4431 19.356 9.59228H19.3566ZM12.6426 9.02978H15.3584C15.2844 8.86089 15.2361 8.68192 15.2149 8.49878C15.201 8.36013 15.1361 8.23159 15.0328 8.13806C14.9295 8.04453 14.7951 7.99267 14.6558 7.99253H13.3452C13.2058 7.99267 13.0715 8.04453 12.9682 8.13806C12.8649 8.23159 12.8 8.36013 12.786 8.49878C12.7647 8.68195 12.7167 8.86092 12.6426 9.02978ZM13.209 17.5522V12.7625C13.209 12.6133 13.1498 12.4703 13.0443 12.3648C12.9388 12.2593 12.7957 12.2 12.6465 12.2C12.4974 12.2 12.3543 12.2593 12.2488 12.3648C12.1433 12.4703 12.084 12.6133 12.084 12.7625V17.5545C12.084 17.7037 12.1433 17.8467 12.2488 17.9522C12.3543 18.0577 12.4974 18.117 12.6465 18.117C12.7957 18.117 12.9388 18.0577 13.0443 17.9522C13.1498 17.8467 13.209 17.7037 13.209 17.5545V17.5522ZM15.9169 17.5522V12.7625C15.9169 12.6133 15.8577 12.4703 15.7522 12.3648C15.6467 12.2593 15.5036 12.2 15.3544 12.2C15.2052 12.2 15.0622 12.2593 14.9567 12.3648C14.8512 12.4703 14.7919 12.6133 14.7919 12.7625V17.5545C14.7919 17.7037 14.8512 17.8467 14.9567 17.9522C15.0622 18.0577 15.2052 18.117 15.3544 18.117C15.5036 18.117 15.6467 18.0577 15.7522 17.9522C15.8577 17.8467 15.9169 17.7037 15.9169 17.5545V17.5522Z" fill="#8E8E8E"/>
</svg>
