<svg width="12" height="12" viewBox="0 0 12 12" fill="none" xmlns="http://www.w3.org/2000/svg">
<path d="M6.46824 9.85848L11.8083 4.51833C11.9319 4.39482 12 4.22994 12 4.05414C12 3.87833 11.9319 3.71346 11.8083 3.58995L11.4151 3.19668C11.1589 2.94078 10.7425 2.94078 10.4867 3.19668L6.00249 7.68094L1.51326 3.19171C1.38965 3.06819 1.22487 3 1.04917 3C0.873265 3 0.708486 3.06819 0.58478 3.19171L0.191709 3.58497C0.0681009 3.70858 4.7302e-06 3.87336 4.72251e-06 4.04916C4.71483e-06 4.22497 0.0681009 4.38984 0.191709 4.51335L5.53664 9.85848C5.66064 9.98229 5.8262 10.0503 6.0022 10.0499C6.17888 10.0503 6.34434 9.98229 6.46824 9.85848Z" fill="#2F2F2F"/>
</svg>
