<svg width="24" height="24" viewBox="0 0 24 24" fill="none" xmlns="http://www.w3.org/2000/svg">
<path d="M18.9042 9.00003C18.9038 7.66409 18.5158 6.35696 17.7873 5.23714C17.0587 4.11732 16.021 3.2329 14.7998 2.69113C13.5786 2.14936 12.2265 1.9735 10.9074 2.18487C9.5883 2.39625 8.35884 2.98578 7.3681 3.88199C6.37736 4.77819 5.6679 5.94258 5.32575 7.23397C4.98359 8.52536 5.02343 9.88827 5.44044 11.1575C5.85745 12.4267 6.63372 13.5476 7.67512 14.3844C8.71652 15.2212 9.97832 15.7379 11.3075 15.8719V18.8647H8.54869C8.36508 18.8647 8.18899 18.9377 8.05915 19.0675C7.92932 19.1973 7.85638 19.3734 7.85638 19.557C7.85638 19.7406 7.92932 19.9167 8.05915 20.0466C8.18899 20.1764 8.36508 20.2493 8.54869 20.2493H11.3075V22.1317C11.3075 22.3153 11.3805 22.4914 11.5103 22.6213C11.6401 22.7511 11.8162 22.824 11.9998 22.824C12.1835 22.824 12.3595 22.7511 12.4894 22.6213C12.6192 22.4914 12.6922 22.3153 12.6922 22.1317V20.2493H15.451C15.6346 20.2493 15.8107 20.1764 15.9405 20.0466C16.0704 19.9167 16.1433 19.7406 16.1433 19.557C16.1433 19.3734 16.0704 19.1973 15.9405 19.0675C15.8107 18.9377 15.6346 18.8647 15.451 18.8647H12.6922V15.8719C14.3944 15.6983 15.9719 14.8996 17.1193 13.6303C18.2668 12.3609 18.9028 10.7111 18.9042 9.00003ZM6.48007 9.00003C6.48062 7.90844 6.80482 6.84152 7.41167 5.93417C8.01852 5.02681 8.88078 4.31976 9.88944 3.9024C10.8981 3.48505 12.0078 3.37614 13.0784 3.58943C14.1489 3.80272 15.1322 4.32865 15.9039 5.10071C16.6756 5.87278 17.201 6.85631 17.4138 7.92696C17.6265 8.99762 17.517 10.1073 17.0992 11.1158C16.6813 12.1242 15.9738 12.9861 15.0662 13.5925C14.1585 14.1989 13.0914 14.5226 11.9998 14.5226C10.5359 14.5209 9.1325 13.9385 8.09762 12.9031C7.06274 11.8677 6.48099 10.4639 6.48007 9.00003Z" fill="#2F2F2F"/>
</svg>
