<svg width="20" height="20" viewBox="0 0 20 20" fill="none" xmlns="http://www.w3.org/2000/svg">
<path d="M10 0.833374C4.94004 0.833374 0.833374 4.94004 0.833374 10C0.833374 15.06 4.94004 19.1667 10 19.1667C15.06 19.1667 19.1667 15.06 19.1667 10C19.1667 4.94004 15.06 0.833374 10 0.833374ZM10 14.5834C9.49587 14.5834 9.08337 14.1709 9.08337 13.6667V10C9.08337 9.49587 9.49587 9.08337 10 9.08337C10.5042 9.08337 10.9167 9.49587 10.9167 10V13.6667C10.9167 14.1709 10.5042 14.5834 10 14.5834ZM10.9167 7.25004H9.08337V5.41671H10.9167V7.25004Z" fill="#549CD1"/>
</svg>
