<svg width="24" height="24" viewBox="0 0 24 24" fill="none" xmlns="http://www.w3.org/2000/svg">
<path d="M21.0848 3.32025C21.0089 3.13671 20.8632 2.99078 20.6798 2.9145C20.5887 2.87683 20.4912 2.85722 20.3926 2.85675H15.5288C15.3299 2.85675 15.1391 2.93577 14.9985 3.07642C14.8578 3.21707 14.7788 3.40784 14.7788 3.60675C14.7788 3.80566 14.8578 3.99643 14.9985 4.13708C15.1391 4.27773 15.3299 4.35675 15.5288 4.35675H18.5821L15.0646 7.87425C13.5765 6.65823 11.678 6.06062 9.76167 6.205C7.84536 6.34939 6.05783 7.22474 4.76876 8.65001C3.47969 10.0753 2.78768 11.9415 2.83585 13.8626C2.88402 15.7837 3.66868 17.6129 5.02756 18.9718C6.38644 20.3306 8.21559 21.1153 10.1367 21.1635C12.0579 21.2116 13.924 20.5196 15.3493 19.2306C16.7746 17.9415 17.6499 16.154 17.7943 14.2377C17.9387 12.3213 17.3411 10.4228 16.1251 8.93475L19.6426 5.41725V8.4705C19.6426 8.66941 19.7216 8.86018 19.8622 9.00083C20.0029 9.14148 20.1937 9.2205 20.3926 9.2205C20.5915 9.2205 20.7823 9.14148 20.9229 9.00083C21.0636 8.86018 21.1426 8.66941 21.1426 8.4705V3.60675C21.1425 3.50837 21.1229 3.41099 21.0848 3.32025ZM10.3358 19.6432C9.15315 19.6432 7.99702 19.2925 7.01366 18.6355C6.03029 17.9784 5.26385 17.0445 4.81126 15.9519C4.35867 14.8592 4.24025 13.6569 4.47098 12.4969C4.70171 11.337 5.27122 10.2715 6.10751 9.43518C6.94379 8.5989 8.00928 8.02938 9.16924 7.79865C10.3292 7.56792 11.5315 7.68634 12.6242 8.13893C13.7168 8.59153 14.6507 9.35796 15.3078 10.3413C15.9649 11.3247 16.3156 12.4808 16.3156 13.6635C16.314 15.2489 15.6835 16.769 14.5624 17.8901C13.4413 19.0111 11.9213 19.6417 10.3358 19.6432Z" fill="#2F2F2F"/>
</svg>
