<svg width="36" height="36" viewBox="0 0 36 36" fill="none" xmlns="http://www.w3.org/2000/svg">
<path d="M17.9999 14.1C10.7999 14.1 4.6499 25.65 4.6499 31.35C4.6499 33.15 5.3999 33.75 5.9999 34.2C6.8999 34.65 8.0999 34.95 10.1999 34.95C11.2499 34.95 12.2999 34.95 13.4999 34.8C14.9999 34.65 16.4999 34.5 17.9999 34.5C19.4999 34.5 20.9999 34.5 22.3499 34.65C23.5499 34.65 24.7499 34.8 25.6499 34.8C29.8499 34.8 31.1999 33.9 31.1999 31.35C31.3499 25.65 25.1999 14.1 17.9999 14.1ZM8.6999 14.4C8.6999 13.05 7.4999 7.64998 5.2499 7.64998C2.8499 7.64998 1.6499 13.05 1.6499 14.4C1.6499 16.35 3.2999 17.85 5.2499 17.85C7.1999 17.85 8.6999 16.35 8.6999 14.4ZM13.1999 11.55C15.1499 11.55 16.6499 9.89998 16.6499 8.09998C16.6499 6.74998 15.4499 1.34998 13.1999 1.34998C10.7999 1.34998 9.5999 6.74998 9.5999 8.09998C9.7499 9.89998 11.2499 11.55 13.1999 11.55ZM30.7499 7.64998C28.3499 7.64998 27.1499 13.05 27.1499 14.4C27.1499 16.35 28.7999 17.85 30.7499 17.85C32.6999 17.85 34.3499 16.2 34.3499 14.4C34.3499 13.05 33.1499 7.64998 30.7499 7.64998ZM22.7999 11.55C24.7499 11.55 26.2499 9.89998 26.2499 8.09998C26.2499 6.74998 25.0499 1.34998 22.7999 1.34998C20.3999 1.34998 19.1999 6.74998 19.1999 8.09998C19.1999 9.89998 20.8499 11.55 22.7999 11.55Z" fill="white"/>
</svg>
