<svg width="24" height="24" viewBox="0 0 24 24" fill="none" xmlns="http://www.w3.org/2000/svg">
<path d="M11.6114 11.1286C14.0472 11.1286 16.0219 9.15397 16.0219 6.71814C16.0219 4.28231 14.0472 2.30768 11.6114 2.30768C9.17556 2.30768 7.20093 4.28231 7.20093 6.71814C7.20093 9.15397 9.17556 11.1286 11.6114 11.1286Z" stroke="#549CD1" stroke-width="1.5" stroke-linecap="round" stroke-linejoin="round"/>
<path fill-rule="evenodd" clip-rule="evenodd" d="M4.61549 17.2628C4.61432 16.9527 4.68367 16.6465 4.81829 16.3672C5.24075 15.5223 6.43209 15.0744 7.42065 14.8717C8.1336 14.7195 8.85639 14.6179 9.58365 14.5675C10.9301 14.4492 12.2844 14.4492 13.6308 14.5675C14.358 14.6185 15.0808 14.7201 15.7938 14.8717C16.7824 15.0744 17.9737 15.48 18.3962 16.3672C18.6669 16.9365 18.6669 17.5975 18.3962 18.1669C17.9737 19.054 16.7824 19.4596 15.7938 19.6539C15.0817 19.8124 14.3587 19.9169 13.6308 19.9665C12.5349 20.0594 11.4339 20.0764 10.3356 20.0172C10.0822 20.0172 9.83712 20.0172 9.58365 19.9665C8.85854 19.9175 8.13825 19.813 7.4291 19.6539C6.43209 19.4596 5.2492 19.054 4.81829 18.1669C4.68435 17.8843 4.61508 17.5755 4.61549 17.2628Z" stroke="#549CD1" stroke-width="1.5" stroke-linecap="round" stroke-linejoin="round"/>
</svg>
