<svg width="18" height="19" viewBox="0 0 18 19" fill="none" xmlns="http://www.w3.org/2000/svg">
<path d="M17.7498 16.9389L13.3993 13.074C14.4531 11.788 15.0312 10.1859 15.0312 8.54825C15.0312 4.52343 11.6612 1.24815 7.51925 1.24815C3.3736 1.24815 0 4.52343 0 8.54825C0 12.5731 3.3736 15.8484 7.51925 15.8484C9.20239 15.8484 10.8526 15.2871 12.1808 14.264L16.5277 18.129C16.6887 18.2853 16.9082 18.3741 17.1388 18.3741C17.3729 18.3741 17.5961 18.2817 17.7535 18.1254C18.0828 17.7879 18.0828 17.2693 17.7498 16.9389ZM13.3078 8.54825C13.3078 11.6459 10.7099 14.1681 7.51925 14.1681C4.3286 14.1681 1.73071 11.6459 1.73071 8.54825C1.73071 5.44704 4.3286 2.92487 7.51925 2.92487C10.7099 2.92487 13.3078 5.44704 13.3078 8.54825Z" fill="#B1B1B1"/>
</svg>
