<svg width="24" height="18" viewBox="0 0 24 18" fill="none" xmlns="http://www.w3.org/2000/svg">
<path d="M12 0C4 0 0 9.0415 0 9.0415C0 9.0415 4 18 12 18C20 18 24 9 24 9C24 9 20 0 12 0ZM12 16C6.7135 16 3.37575 11.0295 2.25075 9.037C3.375 7.0255 6.7135 2 12 2C17.2875 2 20.6255 6.9995 21.7495 9C20.6235 11.004 17.2863 16 12 16ZM12 5C9.791 5 8 6.791 8 9C8 11.2092 9.791 13 12 13C14.2092 13 16 11.2092 16 9C16 6.791 14.2092 5 12 5ZM12 11C10.8973 11 10 10.1027 10 9C10 7.89725 10.8973 7 12 7C13.1027 7 14 7.89725 14 9C14 10.1027 13.1027 11 12 11Z" fill="#C7C7C7"/>
<path d="M12 0C4 0 0 9.0415 0 9.0415C0 9.0415 4 18 12 18C20 18 24 9 24 9C24 9 20 0 12 0ZM12 16C6.7135 16 3.37575 11.0295 2.25075 9.037C3.375 7.0255 6.7135 2 12 2C17.2875 2 20.6255 6.9995 21.7495 9C20.6235 11.004 17.2863 16 12 16ZM12 5C9.791 5 8 6.791 8 9C8 11.2092 9.791 13 12 13C14.2092 13 16 11.2092 16 9C16 6.791 14.2092 5 12 5ZM12 11C10.8973 11 10 10.1027 10 9C10 7.89725 10.8973 7 12 7C13.1027 7 14 7.89725 14 9C14 10.1027 13.1027 11 12 11Z" fill="#C7C7C7"/>
</svg>
