<svg width="24" height="25" viewBox="0 0 24 25" fill="none" xmlns="http://www.w3.org/2000/svg">
<path fill-rule="evenodd" clip-rule="evenodd" d="M16.0199 3.69189C16.0199 3.32265 16.3192 3.02332 16.6885 3.02332H20.961C21.3302 3.02332 21.6296 3.32265 21.6296 3.69189V22.5978C21.6296 22.9671 21.3302 23.2664 20.961 23.2664H16.6885C16.3192 23.2664 16.0199 22.9671 16.0199 22.5978V3.69189ZM17.357 4.36046V21.9292H20.2924V4.36046H17.357ZM9.19526 9.07195C9.19526 8.70271 9.49459 8.40338 9.86383 8.40338H14.1364C14.5056 8.40338 14.8049 8.70271 14.8049 9.07195V22.5978C14.8049 22.9671 14.5056 23.2664 14.1364 23.2664H9.86383C9.49459 23.2664 9.19526 22.9671 9.19526 22.5978V9.07195ZM10.5324 9.74052V21.9292H13.4678V9.74052H10.5324ZM2.37061 12.949C2.37061 12.5798 2.66994 12.2805 3.03918 12.2805H7.3117C7.68095 12.2805 7.98028 12.5798 7.98028 12.949V22.5978C7.98028 22.9671 7.68095 23.2664 7.3117 23.2664H3.03918C2.66994 23.2664 2.37061 22.9671 2.37061 22.5978V12.949ZM3.70775 13.6176V21.9292H6.64313V13.6176H3.70775Z" fill="#549CD1"/>
</svg>
