<svg width="12" height="12" viewBox="0 0 12 12" fill="none" xmlns="http://www.w3.org/2000/svg">
<path d="M5.53176 2.14152L0.191706 7.48167C0.0680972 7.60518 1.61287e-07 7.77006 1.38233e-07 7.94586C1.1518e-07 8.12167 0.0680971 8.28654 0.191706 8.41005L0.584873 8.80332C0.841066 9.05922 1.25745 9.05922 1.51326 8.80332L5.99751 4.31906L10.4867 8.8083C10.6103 8.93181 10.7751 9 10.9508 9C11.1267 9 11.2915 8.93181 11.4152 8.8083L11.8083 8.41503C11.9319 8.29142 12 8.12664 12 7.95084C12 7.77504 11.9319 7.61016 11.8083 7.48665L6.46336 2.14152C6.33936 2.01772 6.1738 1.94972 5.9978 1.95011C5.82112 1.94972 5.65566 2.01772 5.53176 2.14152Z" fill="#2F2F2F"/>
</svg>
