<svg width="46" height="46" viewBox="0 0 46 46" fill="none" xmlns="http://www.w3.org/2000/svg">
<circle cx="23" cy="23" r="23" fill="#D5EDFF"/>
<path d="M22.9959 22.8209C25.4317 22.8209 27.4064 20.8463 27.4064 18.4105C27.4064 15.9746 25.4317 14 22.9959 14C20.5601 14 18.5854 15.9746 18.5854 18.4105C18.5854 20.8463 20.5601 22.8209 22.9959 22.8209Z" fill="white" stroke="white" stroke-width="1.5" stroke-linecap="round" stroke-linejoin="round"/>
<path fill-rule="evenodd" clip-rule="evenodd" d="M16 28.9551C15.9988 28.6451 16.0682 28.3388 16.2028 28.0595C16.6253 27.2146 17.8166 26.7668 18.8052 26.564C19.5181 26.4118 20.2409 26.3102 20.9682 26.2598C22.3146 26.1415 23.6689 26.1415 25.0153 26.2598C25.7425 26.3108 26.4653 26.4124 27.1783 26.564C28.1669 26.7668 29.3582 27.1723 29.7807 28.0595C30.0514 28.6289 30.0514 29.2898 29.7807 29.8592C29.3582 30.7464 28.1669 31.1519 27.1783 31.3462C26.4662 31.5047 25.7432 31.6092 25.0153 31.6589C23.9194 31.7518 22.8184 31.7687 21.7201 31.7096C21.4667 31.7096 21.2216 31.7096 20.9682 31.6589C20.2431 31.6098 19.5228 31.5053 18.8136 31.3462C17.8166 31.1519 16.6337 30.7464 16.2028 29.8592C16.0689 29.5766 15.9996 29.2678 16 28.9551Z" fill="white" stroke="white" stroke-width="1.5" stroke-linecap="round" stroke-linejoin="round"/>
</svg>
